<svg width="433" height="358" viewBox="0 0 433 358" fill="none" xmlns="http://www.w3.org/2000/svg">
<path opacity="0.1" fill-rule="evenodd" clip-rule="evenodd" d="M93.3174 0C68.8925 0 48.0424 17.6465 44.0051 41.7354L0.764919 299.735C-4.34515 330.225 19.1618 358 50.0771 358H383C410.614 358 433 335.614 433 308V50C433 22.3858 410.614 0 383 0H93.3174ZM399.626 39.7883C402.216 44.2741 401.546 50.23 398.1 56.3411C394.663 62.4352 388.527 68.5478 380.485 73.1907C372.444 77.8337 364.082 80.0913 357.086 80.0206C350.07 79.9497 344.578 77.5515 341.988 73.0657C339.398 68.5799 340.067 62.624 343.514 56.5129C346.95 50.4187 353.086 44.3061 361.128 39.6632C369.17 35.0203 377.532 32.7626 384.528 32.8334C391.543 32.9043 397.036 35.3024 399.626 39.7883ZM381.235 74.4898C389.469 69.7363 395.816 63.4439 399.406 57.0779C402.987 50.7289 403.888 44.1695 400.925 39.0383C397.962 33.907 391.832 31.4071 384.543 31.3335C377.235 31.2596 368.612 33.6107 360.378 38.3642C352.145 43.1177 345.797 49.41 342.207 55.776C338.627 62.1251 337.726 68.6844 340.689 73.8157C343.651 78.947 349.782 81.4468 357.071 81.5205C364.379 81.5944 373.002 79.2433 381.235 74.4898Z" fill="#F063B8"/>
</svg>
