<svg width="433" height="358" viewBox="0 0 433 358" fill="none" xmlns="http://www.w3.org/2000/svg">
<path opacity="0.1" fill-rule="evenodd" clip-rule="evenodd" d="M44.0051 41.7356C48.0424 17.6468 68.8925 0.000244141 93.3174 0.000244141H383C410.614 0.000244141 433 22.386 433 50.0002V308C433 335.614 410.614 358 383 358H50.0771C19.1618 358 -4.34515 330.226 0.764919 299.736L44.0051 41.7356ZM218.501 40.9428C218.405 36.2875 218.911 32.4005 219.963 29.6361C222.013 24.2497 225.105 20.0994 229.214 17.64C233.333 15.1743 238.387 14.46 244.248 15.7911C255.401 18.324 269.578 28.2799 286.309 47.9617C286.807 47.8209 287.323 47.7045 287.853 47.6123C291.496 46.9791 295.966 47.4519 300.421 49.137C304.876 50.822 308.541 53.4261 310.853 56.3116C313.152 59.1819 314.198 62.4562 313.094 65.3761C312.675 66.4839 311.99 67.4251 311.104 68.201C322.366 73.1239 334.105 73.8632 345.794 74.3183C346.636 74.351 347.477 74.3823 348.318 74.4135C367.206 75.1148 385.951 75.8108 401.576 93.5336C408.093 100.926 411.122 108.329 411.054 115.319C410.986 122.315 407.818 128.777 402.176 134.279C390.921 145.254 369.738 152.51 342.913 152.891L342.883 152.892L342.853 152.89C289.462 149.371 256.69 123.954 238.292 96.7298C229.1 83.1276 223.498 69.0788 220.698 57.0918C219.298 51.0983 218.597 45.6103 218.501 40.9428ZM309.57 67.5028C310.573 66.7845 311.297 65.888 311.691 64.8455C312.532 62.6226 311.811 59.9066 309.682 57.2495C307.565 54.6075 304.139 52.1468 299.891 50.54C295.642 48.9332 291.445 48.5104 288.11 49.0901C287.862 49.1332 287.62 49.1815 287.384 49.2351C287.798 49.7302 288.215 50.2312 288.633 50.7382C295.309 58.8377 302.335 64.0772 309.57 67.5028ZM285.813 49.6978C286.364 50.3517 286.918 51.0165 287.475 51.6923C294.019 59.6312 300.904 64.8857 307.972 68.3953C307.142 68.7548 306.199 69.0297 305.158 69.2106C301.823 69.7903 297.625 69.3675 293.377 67.7607C289.129 66.1539 285.702 63.6932 283.586 61.0512C281.457 58.394 280.736 55.6781 281.577 53.4552C282.209 51.7826 283.69 50.4857 285.813 49.6978ZM284.79 48.492C282.617 49.4106 280.945 50.8853 280.174 52.9246C279.069 55.8445 280.115 59.1188 282.415 61.9891C284.727 64.8746 288.391 67.4787 292.846 69.1637C297.301 70.8487 301.772 71.3216 305.415 70.6884C306.999 70.413 308.455 69.9209 309.684 69.2103C321.471 74.5819 333.728 75.3496 345.736 75.8171C346.539 75.8484 347.34 75.8783 348.141 75.9082L348.145 75.9084L348.15 75.9086C367.122 76.6174 385.26 77.295 400.451 94.5256C406.796 101.722 409.617 108.782 409.554 115.305C409.491 121.822 406.548 127.921 401.129 133.205C390.267 143.797 369.544 151.007 342.922 151.391C290.044 147.898 257.689 122.753 239.535 95.8899C230.449 82.446 224.919 68.5676 222.159 56.7507C220.779 50.8423 220.094 45.4591 220.001 40.912C219.907 36.3526 220.409 32.6815 221.365 30.1697C223.331 25.0038 226.241 21.1678 229.984 18.9271C233.717 16.6927 238.363 15.9929 243.915 17.2538C254.507 19.6592 268.29 29.1817 284.79 48.492Z" fill="#68C9BA"/>
</svg>
