<svg width="217" height="35" viewBox="0 0 217 35" fill="none" xmlns="http://www.w3.org/2000/svg">
<path d="M70.58 10.7846H76.16C77.0933 10.7846 77.9933 10.9312 78.86 11.2246C79.7267 11.5046 80.4933 11.9379 81.16 12.5246C81.8267 13.1112 82.36 13.8512 82.76 14.7446C83.16 15.6246 83.36 16.6646 83.36 17.8646C83.36 19.0779 83.1267 20.1312 82.66 21.0246C82.2067 21.9046 81.6133 22.6379 80.88 23.2246C80.16 23.7979 79.3533 24.2312 78.46 24.5246C77.58 24.8046 76.7133 24.9446 75.86 24.9446H70.58V10.7846ZM74.98 22.6646C75.7667 22.6646 76.5067 22.5779 77.2 22.4046C77.9067 22.2179 78.52 21.9379 79.04 21.5646C79.56 21.1779 79.9667 20.6846 80.26 20.0846C80.5667 19.4712 80.72 18.7312 80.72 17.8646C80.72 17.0112 80.5867 16.2779 80.32 15.6646C80.0533 15.0512 79.68 14.5579 79.2 14.1846C78.7333 13.7979 78.1733 13.5179 77.52 13.3446C76.88 13.1579 76.1733 13.0646 75.4 13.0646H73.1V22.6646H74.98Z" fill="#212353"/>
<path d="M91.5358 23.6246H91.4758C91.1291 24.1712 90.6891 24.5712 90.1558 24.8246C89.6225 25.0646 89.0358 25.1846 88.3958 25.1846C87.9558 25.1846 87.5224 25.1246 87.0958 25.0046C86.6824 24.8846 86.3091 24.7046 85.9758 24.4646C85.6558 24.2246 85.3958 23.9246 85.1958 23.5646C84.9958 23.2046 84.8958 22.7846 84.8958 22.3046C84.8958 21.7846 84.9891 21.3446 85.1758 20.9846C85.3624 20.6112 85.6091 20.3046 85.9158 20.0646C86.2358 19.8112 86.6024 19.6112 87.0158 19.4646C87.4291 19.3179 87.8558 19.2112 88.2958 19.1446C88.7491 19.0646 89.2025 19.0179 89.6558 19.0046C90.1091 18.9779 90.5358 18.9646 90.9358 18.9646H91.5358V18.7046C91.5358 18.1046 91.3291 17.6579 90.9158 17.3646C90.5024 17.0579 89.9758 16.9046 89.3358 16.9046C88.8291 16.9046 88.3558 16.9979 87.9158 17.1846C87.4758 17.3579 87.0958 17.5979 86.7758 17.9046L85.5158 16.6446C86.0491 16.0979 86.6691 15.7046 87.3758 15.4646C88.0958 15.2246 88.8358 15.1046 89.5958 15.1046C90.2758 15.1046 90.8491 15.1846 91.3158 15.3446C91.7824 15.4912 92.1691 15.6846 92.4758 15.9246C92.7825 16.1646 93.0158 16.4446 93.1758 16.7646C93.3491 17.0712 93.4691 17.3846 93.5358 17.7046C93.6158 18.0246 93.6624 18.3379 93.6758 18.6446C93.6891 18.9379 93.6958 19.1979 93.6958 19.4246V24.9446H91.5358V23.6246ZM91.3958 20.6446H90.8958C90.5624 20.6446 90.1891 20.6579 89.7758 20.6846C89.3624 20.7112 88.9691 20.7779 88.5958 20.8846C88.2358 20.9779 87.9291 21.1246 87.6758 21.3246C87.4224 21.5112 87.2958 21.7779 87.2958 22.1246C87.2958 22.3512 87.3425 22.5446 87.4358 22.7046C87.5425 22.8512 87.6758 22.9779 87.8358 23.0846C87.9958 23.1912 88.1758 23.2712 88.3758 23.3246C88.5758 23.3646 88.7758 23.3846 88.9758 23.3846C89.8025 23.3846 90.4091 23.1912 90.7958 22.8046C91.1958 22.4046 91.3958 21.8646 91.3958 21.1846V20.6446Z" fill="#212353"/>
<path d="M95.158 17.3846V15.3446H97.138V12.5646H99.538V15.3446H102.178V17.3846H99.538V21.5846C99.538 22.0646 99.6246 22.4446 99.798 22.7246C99.9846 23.0046 100.345 23.1446 100.878 23.1446C101.091 23.1446 101.325 23.1246 101.578 23.0846C101.831 23.0312 102.031 22.9512 102.178 22.8446V24.8646C101.925 24.9846 101.611 25.0646 101.238 25.1046C100.878 25.1579 100.558 25.1846 100.278 25.1846C99.638 25.1846 99.1113 25.1112 98.698 24.9646C98.298 24.8312 97.978 24.6246 97.738 24.3446C97.5113 24.0512 97.3513 23.6912 97.258 23.2646C97.178 22.8379 97.138 22.3446 97.138 21.7846V17.3846H95.158Z" fill="#212353"/>
<path d="M110.051 23.6246H109.991C109.645 24.1712 109.205 24.5712 108.671 24.8246C108.138 25.0646 107.551 25.1846 106.911 25.1846C106.471 25.1846 106.038 25.1246 105.611 25.0046C105.198 24.8846 104.825 24.7046 104.491 24.4646C104.171 24.2246 103.911 23.9246 103.711 23.5646C103.511 23.2046 103.411 22.7846 103.411 22.3046C103.411 21.7846 103.505 21.3446 103.691 20.9846C103.878 20.6112 104.125 20.3046 104.431 20.0646C104.751 19.8112 105.118 19.6112 105.531 19.4646C105.945 19.3179 106.371 19.2112 106.811 19.1446C107.265 19.0646 107.718 19.0179 108.171 19.0046C108.625 18.9779 109.051 18.9646 109.451 18.9646H110.051V18.7046C110.051 18.1046 109.845 17.6579 109.431 17.3646C109.018 17.0579 108.491 16.9046 107.851 16.9046C107.345 16.9046 106.871 16.9979 106.431 17.1846C105.991 17.3579 105.611 17.5979 105.291 17.9046L104.031 16.6446C104.565 16.0979 105.185 15.7046 105.891 15.4646C106.611 15.2246 107.351 15.1046 108.111 15.1046C108.791 15.1046 109.365 15.1846 109.831 15.3446C110.298 15.4912 110.685 15.6846 110.991 15.9246C111.298 16.1646 111.531 16.4446 111.691 16.7646C111.865 17.0712 111.985 17.3846 112.051 17.7046C112.131 18.0246 112.178 18.3379 112.191 18.6446C112.205 18.9379 112.211 19.1979 112.211 19.4246V24.9446H110.051V23.6246ZM109.911 20.6446H109.411C109.078 20.6446 108.705 20.6579 108.291 20.6846C107.878 20.7112 107.485 20.7779 107.111 20.8846C106.751 20.9779 106.445 21.1246 106.191 21.3246C105.938 21.5112 105.811 21.7779 105.811 22.1246C105.811 22.3512 105.858 22.5446 105.951 22.7046C106.058 22.8512 106.191 22.9779 106.351 23.0846C106.511 23.1912 106.691 23.2712 106.891 23.3246C107.091 23.3646 107.291 23.3846 107.491 23.3846C108.318 23.3846 108.925 23.1912 109.311 22.8046C109.711 22.4046 109.911 21.8646 109.911 21.1846V20.6446Z" fill="#212353"/>
<path d="M113.434 10.7846H116.194L118.854 20.9846H118.894L122.074 10.7846H124.554L127.674 20.9846H127.714L130.494 10.7846H133.054L128.934 24.9446H126.534L123.254 14.1646H123.214L119.934 24.9446H117.614L113.434 10.7846Z" fill="#212353"/>
<path d="M139.68 23.6246H139.62C139.274 24.1712 138.834 24.5712 138.3 24.8246C137.767 25.0646 137.18 25.1846 136.54 25.1846C136.1 25.1846 135.667 25.1246 135.24 25.0046C134.827 24.8846 134.454 24.7046 134.12 24.4646C133.8 24.2246 133.54 23.9246 133.34 23.5646C133.14 23.2046 133.04 22.7846 133.04 22.3046C133.04 21.7846 133.134 21.3446 133.32 20.9846C133.507 20.6112 133.754 20.3046 134.06 20.0646C134.38 19.8112 134.747 19.6112 135.16 19.4646C135.574 19.3179 136 19.2112 136.44 19.1446C136.894 19.0646 137.347 19.0179 137.8 19.0046C138.254 18.9779 138.68 18.9646 139.08 18.9646H139.68V18.7046C139.68 18.1046 139.474 17.6579 139.06 17.3646C138.647 17.0579 138.12 16.9046 137.48 16.9046C136.974 16.9046 136.5 16.9979 136.06 17.1846C135.62 17.3579 135.24 17.5979 134.92 17.9046L133.66 16.6446C134.194 16.0979 134.814 15.7046 135.52 15.4646C136.24 15.2246 136.98 15.1046 137.74 15.1046C138.42 15.1046 138.994 15.1846 139.46 15.3446C139.927 15.4912 140.314 15.6846 140.62 15.9246C140.927 16.1646 141.16 16.4446 141.32 16.7646C141.494 17.0712 141.614 17.3846 141.68 17.7046C141.76 18.0246 141.807 18.3379 141.82 18.6446C141.834 18.9379 141.84 19.1979 141.84 19.4246V24.9446H139.68V23.6246ZM139.54 20.6446H139.04C138.707 20.6446 138.334 20.6579 137.92 20.6846C137.507 20.7112 137.114 20.7779 136.74 20.8846C136.38 20.9779 136.074 21.1246 135.82 21.3246C135.567 21.5112 135.44 21.7779 135.44 22.1246C135.44 22.3512 135.487 22.5446 135.58 22.7046C135.687 22.8512 135.82 22.9779 135.98 23.0846C136.14 23.1912 136.32 23.2712 136.52 23.3246C136.72 23.3646 136.92 23.3846 137.12 23.3846C137.947 23.3846 138.554 23.1912 138.94 22.8046C139.34 22.4046 139.54 21.8646 139.54 21.1846V20.6446Z" fill="#212353"/>
<path d="M144.423 15.3446H146.822V16.8646H146.863C147.129 16.3046 147.509 15.8712 148.003 15.5646C148.496 15.2579 149.062 15.1046 149.702 15.1046C149.849 15.1046 149.989 15.1179 150.122 15.1446C150.269 15.1712 150.416 15.2046 150.562 15.2446V17.5646C150.362 17.5112 150.162 17.4712 149.962 17.4446C149.776 17.4046 149.589 17.3846 149.402 17.3846C148.842 17.3846 148.389 17.4912 148.042 17.7046C147.709 17.9046 147.449 18.1379 147.262 18.4046C147.089 18.6712 146.969 18.9379 146.902 19.2046C146.849 19.4712 146.822 19.6712 146.822 19.8046V24.9446H144.423V15.3446Z" fill="#212353"/>
<path d="M153.764 20.9846C153.844 21.7046 154.124 22.2646 154.604 22.6646C155.084 23.0646 155.664 23.2646 156.344 23.2646C156.944 23.2646 157.444 23.1446 157.844 22.9046C158.258 22.6512 158.618 22.3379 158.924 21.9646L160.644 23.2646C160.084 23.9579 159.458 24.4512 158.764 24.7446C158.071 25.0379 157.344 25.1846 156.584 25.1846C155.864 25.1846 155.184 25.0646 154.544 24.8246C153.904 24.5846 153.351 24.2446 152.884 23.8046C152.418 23.3646 152.044 22.8379 151.764 22.2246C151.498 21.5979 151.364 20.9046 151.364 20.1446C151.364 19.3846 151.498 18.6979 151.764 18.0846C152.044 17.4579 152.418 16.9246 152.884 16.4846C153.351 16.0446 153.904 15.7046 154.544 15.4646C155.184 15.2246 155.864 15.1046 156.584 15.1046C157.251 15.1046 157.858 15.2246 158.404 15.4646C158.964 15.6912 159.438 16.0246 159.824 16.4646C160.224 16.9046 160.531 17.4512 160.744 18.1046C160.971 18.7446 161.084 19.4846 161.084 20.3246V20.9846H153.764ZM158.684 19.1846C158.671 18.4779 158.451 17.9246 158.024 17.5246C157.598 17.1112 157.004 16.9046 156.244 16.9046C155.524 16.9046 154.951 17.1112 154.524 17.5246C154.111 17.9379 153.858 18.4912 153.764 19.1846H158.684Z" fill="#212353"/>
<path d="M165.729 16.6846H165.769C165.955 16.2846 166.282 15.9246 166.749 15.6046C167.229 15.2712 167.842 15.1046 168.589 15.1046C169.229 15.1046 169.769 15.2112 170.209 15.4246C170.662 15.6379 171.029 15.9179 171.309 16.2646C171.589 16.6112 171.789 17.0112 171.909 17.4646C172.029 17.9179 172.089 18.3912 172.089 18.8846V24.9446H169.689V20.0846C169.689 19.8179 169.675 19.5246 169.649 19.2046C169.622 18.8712 169.549 18.5646 169.429 18.2846C169.322 17.9912 169.149 17.7512 168.909 17.5646C168.669 17.3646 168.342 17.2646 167.929 17.2646C167.529 17.2646 167.189 17.3312 166.909 17.4646C166.642 17.5979 166.415 17.7779 166.229 18.0046C166.055 18.2312 165.929 18.4912 165.849 18.7846C165.769 19.0779 165.729 19.3846 165.729 19.7046V24.9446H163.329V9.82458H165.729V16.6846Z" fill="#212353"/>
<path d="M174.333 20.1446C174.333 19.3846 174.466 18.6979 174.733 18.0846C175.013 17.4579 175.386 16.9246 175.853 16.4846C176.32 16.0446 176.873 15.7046 177.513 15.4646C178.153 15.2246 178.833 15.1046 179.553 15.1046C180.273 15.1046 180.953 15.2246 181.593 15.4646C182.233 15.7046 182.786 16.0446 183.253 16.4846C183.72 16.9246 184.086 17.4579 184.353 18.0846C184.633 18.6979 184.773 19.3846 184.773 20.1446C184.773 20.9046 184.633 21.5979 184.353 22.2246C184.086 22.8379 183.72 23.3646 183.253 23.8046C182.786 24.2446 182.233 24.5846 181.593 24.8246C180.953 25.0646 180.273 25.1846 179.553 25.1846C178.833 25.1846 178.153 25.0646 177.513 24.8246C176.873 24.5846 176.32 24.2446 175.853 23.8046C175.386 23.3646 175.013 22.8379 174.733 22.2246C174.466 21.5979 174.333 20.9046 174.333 20.1446ZM176.733 20.1446C176.733 20.5179 176.793 20.8779 176.913 21.2246C177.046 21.5712 177.233 21.8779 177.473 22.1446C177.726 22.4112 178.026 22.6246 178.373 22.7846C178.72 22.9446 179.113 23.0246 179.553 23.0246C179.993 23.0246 180.386 22.9446 180.733 22.7846C181.08 22.6246 181.373 22.4112 181.613 22.1446C181.866 21.8779 182.053 21.5712 182.173 21.2246C182.306 20.8779 182.373 20.5179 182.373 20.1446C182.373 19.7712 182.306 19.4112 182.173 19.0646C182.053 18.7179 181.866 18.4112 181.613 18.1446C181.373 17.8779 181.08 17.6646 180.733 17.5046C180.386 17.3446 179.993 17.2646 179.553 17.2646C179.113 17.2646 178.72 17.3446 178.373 17.5046C178.026 17.6646 177.726 17.8779 177.473 18.1446C177.233 18.4112 177.046 18.7179 176.913 19.0646C176.793 19.4112 176.733 19.7712 176.733 20.1446Z" fill="#212353"/>
<path d="M195.78 24.9446H193.5V23.4046H193.46C193.233 23.8846 192.887 24.3046 192.42 24.6646C191.953 25.0112 191.32 25.1846 190.52 25.1846C189.88 25.1846 189.333 25.0846 188.88 24.8846C188.44 24.6712 188.08 24.3912 187.8 24.0446C187.52 23.6846 187.32 23.2779 187.2 22.8246C187.08 22.3712 187.02 21.8979 187.02 21.4046V15.3446H189.42V20.2046C189.42 20.4712 189.433 20.7712 189.46 21.1046C189.487 21.4246 189.553 21.7312 189.66 22.0246C189.78 22.3046 189.953 22.5446 190.18 22.7446C190.42 22.9312 190.753 23.0246 191.18 23.0246C191.58 23.0246 191.913 22.9579 192.18 22.8246C192.46 22.6912 192.687 22.5112 192.86 22.2846C193.047 22.0579 193.18 21.7979 193.26 21.5046C193.34 21.2112 193.38 20.9046 193.38 20.5846V15.3446H195.78V24.9446Z" fill="#212353"/>
<path d="M203.625 18.0046C203.158 17.3512 202.531 17.0246 201.745 17.0246C201.425 17.0246 201.111 17.1046 200.805 17.2646C200.498 17.4246 200.345 17.6846 200.345 18.0446C200.345 18.3379 200.471 18.5512 200.725 18.6846C200.978 18.8179 201.298 18.9312 201.685 19.0246C202.071 19.1179 202.485 19.2179 202.925 19.3246C203.378 19.4179 203.798 19.5712 204.185 19.7846C204.571 19.9846 204.891 20.2646 205.145 20.6246C205.398 20.9846 205.525 21.4779 205.525 22.1046C205.525 22.6779 205.398 23.1646 205.145 23.5646C204.905 23.9512 204.585 24.2646 204.185 24.5046C203.798 24.7446 203.358 24.9179 202.865 25.0246C202.371 25.1312 201.878 25.1846 201.385 25.1846C200.638 25.1846 199.951 25.0779 199.325 24.8646C198.698 24.6512 198.138 24.2646 197.645 23.7046L199.245 22.2046C199.551 22.5512 199.878 22.8379 200.225 23.0646C200.585 23.2779 201.018 23.3846 201.525 23.3846C201.698 23.3846 201.878 23.3646 202.065 23.3246C202.251 23.2846 202.425 23.2179 202.585 23.1246C202.745 23.0312 202.871 22.9179 202.965 22.7846C203.071 22.6379 203.125 22.4712 203.125 22.2846C203.125 21.9512 202.998 21.7046 202.745 21.5446C202.491 21.3846 202.171 21.2579 201.785 21.1646C201.398 21.0579 200.978 20.9646 200.525 20.8846C200.085 20.7912 199.671 20.6512 199.285 20.4646C198.898 20.2646 198.578 19.9912 198.325 19.6446C198.071 19.2979 197.945 18.8179 197.945 18.2046C197.945 17.6712 198.051 17.2112 198.265 16.8246C198.491 16.4246 198.785 16.0979 199.145 15.8446C199.505 15.5912 199.918 15.4046 200.385 15.2846C200.851 15.1646 201.325 15.1046 201.805 15.1046C202.445 15.1046 203.078 15.2179 203.705 15.4446C204.331 15.6579 204.838 16.0312 205.225 16.5646L203.625 18.0046Z" fill="#212353"/>
<path d="M209.311 20.9846C209.391 21.7046 209.671 22.2646 210.151 22.6646C210.631 23.0646 211.211 23.2646 211.891 23.2646C212.491 23.2646 212.991 23.1446 213.391 22.9046C213.805 22.6512 214.165 22.3379 214.471 21.9646L216.191 23.2646C215.631 23.9579 215.005 24.4512 214.311 24.7446C213.618 25.0379 212.891 25.1846 212.131 25.1846C211.411 25.1846 210.731 25.0646 210.091 24.8246C209.451 24.5846 208.898 24.2446 208.431 23.8046C207.965 23.3646 207.591 22.8379 207.311 22.2246C207.045 21.5979 206.911 20.9046 206.911 20.1446C206.911 19.3846 207.045 18.6979 207.311 18.0846C207.591 17.4579 207.965 16.9246 208.431 16.4846C208.898 16.0446 209.451 15.7046 210.091 15.4646C210.731 15.2246 211.411 15.1046 212.131 15.1046C212.798 15.1046 213.405 15.2246 213.951 15.4646C214.511 15.6912 214.985 16.0246 215.371 16.4646C215.771 16.9046 216.078 17.4512 216.291 18.1046C216.518 18.7446 216.631 19.4846 216.631 20.3246V20.9846H209.311ZM214.231 19.1846C214.218 18.4779 213.998 17.9246 213.571 17.5246C213.145 17.1112 212.551 16.9046 211.791 16.9046C211.071 16.9046 210.498 17.1112 210.071 17.5246C209.658 17.9379 209.405 18.4912 209.311 19.1846H214.231Z" fill="#212353"/>
<path d="M0 24.5381C0 19.1173 4.39441 14.7229 9.8152 14.7229H10.1848C15.6056 14.7229 20 19.1173 20 24.5381C20 29.9588 15.6056 34.3533 10.1848 34.3533H9.8152C4.39441 34.3533 0 29.9588 0 24.5381Z" fill="#9C69E2"/>
<path d="M29 10C29 4.47715 33.4772 0 39 0C44.5228 0 49 4.47715 49 10V24.3532C49 29.876 44.5228 34.3532 39 34.3532C33.4772 34.3532 29 29.876 29 24.3532V10Z" fill="#F063B8"/>
</svg>
