<svg width="16" height="16" viewBox="0 0 16 16" fill="none" xmlns="http://www.w3.org/2000/svg">
<path d="M8.00179 3.69832C5.73162 3.69832 3.9005 5.43612 3.9005 7.59058C3.9005 9.74504 5.73162 11.4828 8.00179 11.4828C10.2719 11.4828 12.1031 9.74504 12.1031 7.59058C12.1031 5.43612 10.2719 3.69832 8.00179 3.69832ZM8.00179 10.1211C6.53475 10.1211 5.33542 8.98623 5.33542 7.59058C5.33542 6.19492 6.53118 5.0601 8.00179 5.0601C9.47239 5.0601 10.6682 6.19492 10.6682 7.59058C10.6682 8.98623 9.46882 10.1211 8.00179 10.1211V10.1211ZM13.2274 3.53911C13.2274 4.04385 12.7991 4.44696 12.2708 4.44696C11.739 4.44696 11.3142 4.04046 11.3142 3.53911C11.3142 3.03776 11.7426 2.63125 12.2708 2.63125C12.7991 2.63125 13.2274 3.03776 13.2274 3.53911ZM15.9438 4.46051C15.8831 3.24439 15.5904 2.16716 14.6516 1.27963C13.7165 0.392105 12.5814 0.114329 11.2999 0.0533534C9.97925 -0.0177844 6.02075 -0.0177844 4.70006 0.0533534C3.4222 0.110941 2.28712 0.388717 1.34835 1.27625C0.409593 2.16378 0.120468 3.24101 0.0562186 4.45712C-0.0187395 5.7105 -0.0187395 9.46726 0.0562186 10.7206C0.116899 11.9368 0.409593 13.014 1.34835 13.9015C2.28712 14.789 3.41863 15.0668 4.70006 15.1278C6.02075 15.1989 9.97925 15.1989 11.2999 15.1278C12.5814 15.0702 13.7165 14.7924 14.6516 13.9015C15.5868 13.014 15.8795 11.9368 15.9438 10.7206C16.0187 9.46726 16.0187 5.71389 15.9438 4.46051V4.46051ZM14.2376 12.0655C13.9592 12.7294 13.4202 13.241 12.717 13.5086C11.664 13.9049 9.16542 13.8134 8.00179 13.8134C6.83815 13.8134 4.33597 13.9015 3.28656 13.5086C2.58695 13.2443 2.04796 12.7328 1.76598 12.0655C1.34835 11.0662 1.44473 8.69491 1.44473 7.59058C1.44473 6.48625 1.35192 4.1116 1.76598 3.11567C2.0444 2.45171 2.58338 1.9402 3.28656 1.67259C4.33954 1.27625 6.83815 1.36771 8.00179 1.36771C9.16542 1.36771 11.6676 1.27963 12.717 1.67259C13.4166 1.93681 13.9556 2.44833 14.2376 3.11567C14.6552 4.11499 14.5588 6.48625 14.5588 7.59058C14.5588 8.69491 14.6552 11.0696 14.2376 12.0655Z" fill="white"/>
</svg>
